<?xml version="1.0" encoding="UTF-8"?>
<svg id="Line" xmlns="http://www.w3.org/2000/svg" version="1.1" viewBox="0 0 64 64">
  <path d="M18.19,32.38h12.23v5.62c0,9.35-2.74,13.46-12.23,13.46-10.44,0-12.99-4.25-12.99-17.47s3.02-17.28,12.99-17.28c9.35,0,11.43,3.78,11.95,11.14h-6.23c-.24-4.25-1.94-5.29-5.71-5.29-5.43,0-6.23,1.61-6.23,11.33,0,11.1.8,12.37,6.23,12.37,4.58,0,5.9-1.32,5.9-7.6v-.8h-5.9v-5.48Z"/>
  <path d="M34.86,17.27h6.85l11.05,21.58v-21.58h6.04v33.62h-6.42l-11.47-22.38v22.38h-6.04V17.27Z"/>
</svg>