<?xml version="1.0" encoding="UTF-8"?>
<svg id="Calque_1" xmlns="http://www.w3.org/2000/svg" version="1.1" viewBox="0 0 500 70">
  <defs>
    <style>
      .st0 {
        fill: none;
        stroke: #fff;
        stroke-miterlimit: 10;
        stroke-width: 4px;
      }

      .st1 {
        fill: #fff;
      }
    </style>
  </defs>
  <rect class="st0" x="72.25" y="-110.01" width="160.04" height="85.59" rx="10.9" ry="10.9"/>
  <path d="M24.09,32.04h19.46v8.94c0,14.88-4.36,21.42-19.46,21.42-16.61,0-20.67-6.76-20.67-27.8S8.23,7.09,24.09,7.09c14.88,0,18.19,6.01,19.01,17.74h-9.92c-.38-6.76-3.08-8.42-9.09-8.42-8.64,0-9.92,2.56-9.92,18.04,0,17.66,1.28,19.69,9.92,19.69,7.29,0,9.39-2.1,9.39-12.1v-1.28h-9.39v-8.72Z"/>
  <path d="M50.4,7.99h9.92v9.02h-9.92V7.99ZM50.4,23.62h9.92v37.88h-9.92V23.62Z"/>
  <path d="M67.98,7.99h9.92v53.51h-9.92V7.99Z"/>
  <path d="M85.57,7.99h9.92v19.46c1.8-3.31,4.96-4.43,8.57-4.43,9.92,0,13.98,4.51,13.98,19.54s-4.58,19.54-14.28,19.54c-3.91,0-7.29-1.05-8.87-5.49v4.88h-9.32V7.99ZM107.89,42.56c0-9.54-1.35-11.05-6.16-11.05s-6.24,1.35-6.24,11.05c0,10.37,1.65,11.95,6.24,11.95,4.81,0,6.16-1.8,6.16-11.95Z"/>
  <path d="M123.37,42.71c0-14.13,4.36-19.69,15.93-19.69s15.18,6.31,15.18,19.61v1.95h-21.19c.15,8.79,1.65,10.14,6.31,10.14,3.76,0,5.34-1.05,5.71-4.88h8.87c-.6,7.52-4.73,12.25-14.5,12.25-12.1,0-16.31-5.19-16.31-19.39ZM133.44,38.12h11.65c-.38-5.64-1.88-6.91-5.64-6.91s-5.49.98-6.01,6.91Z"/>
  <path d="M160.27,36.7c0-9.24,3.76-13.08,13.08-13.08h6.31v8.19h-4.96c-3.23,0-4.51,1.28-4.51,4.51v25.17h-9.92v-24.8Z"/>
  <path d="M183.49,23.62h4.66v-9.02h9.62v9.02h9.09v8.19h-9.09v17.06c0,4.13,1.28,5.04,4.96,5.04h3.98v7.59h-5.86c-9.32,0-13-3.53-13-13.15v-16.53h-4.36v-8.19Z"/>
  <path d="M226.48,7.99h10.9l17.58,34.34V7.99h9.62v53.51h-10.22l-18.26-35.62v35.62h-9.62V7.99Z"/>
  <path d="M271.58,42.56c0-15.03,4.28-19.54,16.31-19.54s16.31,4.96,16.31,19.54-4.06,19.54-16.31,19.54-16.31-4.81-16.31-19.54ZM294.05,42.56c0-9.54-1.28-11.05-6.16-11.05s-6.24,1.5-6.24,11.05c0,10.37,1.43,11.95,6.24,11.95s6.16-1.65,6.16-11.95Z"/>
  <path d="M310.13,36.7c0-9.24,3.76-13.08,13.08-13.08h6.31v8.19h-4.96c-3.23,0-4.51,1.28-4.51,4.51v25.17h-9.92v-24.8Z"/>
  <path d="M334.33,23.62h9.47v4.43c1.28-3.23,4.28-5.04,9.09-5.04,5.49,0,8.79,1.95,10.52,5.79,1.28-3.61,4.81-5.79,10-5.79,8.64,0,11.87,4.81,11.87,13.9v24.57h-10v-22.39c0-5.79-1.28-7.44-5.19-7.44s-5.33,1.43-5.33,6.84v23h-10v-22.39c0-5.79-1.28-7.44-5.19-7.44s-5.34,1.43-5.34,6.84v23h-9.92V23.62Z"/>
  <path d="M405.87,39.4l4.73-.9v-1.5c0-4.43-.83-5.94-4.66-5.94s-5.19.83-5.26,5.11h-8.79c.23-8.42,3.98-13.15,14.65-13.15,12.02,0,13.98,6.46,13.98,13.45v25.02h-9.47v-3.91c-1.28,2.63-3.98,4.51-8.79,4.51-7.14,0-11.27-3.38-11.27-10.3,0-7.51,4.66-10.45,14.88-12.4ZM410.61,45.19l-3.08.45c-5.04.83-6.76,2.18-6.76,5.11s1.43,4.21,4.36,4.21c3.38,0,5.49-1.58,5.49-6.01v-3.76Z"/>
  <path d="M427.9,23.62h9.47v4.43c1.28-3.23,4.28-5.04,9.09-5.04,8.64,0,11.87,4.81,11.87,13.9v24.57h-10v-22.39c0-5.79-1.28-7.44-5.19-7.44-4.13,0-5.34,1.65-5.34,7.44v22.39h-9.92V23.62Z"/>
  <path d="M464.5,42.56c0-14.8,4.73-19.54,14.35-19.54,3.53,0,6.39.9,8.19,4.13V7.99h9.92v53.51h-9.47v-4.88c-1.8,4.21-5.11,5.49-9.24,5.49-9.77,0-13.75-4.51-13.75-19.54ZM487.04,42.56c0-9.69-1.65-11.05-6.24-11.05-4.81,0-6.16,1.5-6.16,11.05,0,10.14,1.35,11.95,6.16,11.95s6.24-1.58,6.24-11.95Z"/>
  <path d="M389.57-91.11h19.46v8.94c0,14.88-4.36,21.42-19.46,21.42-16.61,0-20.67-6.76-20.67-27.8s4.81-27.5,20.67-27.5c14.88,0,18.19,6.01,19.01,17.74h-9.92c-.38-6.76-3.08-8.42-9.09-8.42-8.64,0-9.92,2.56-9.92,18.04,0,17.66,1.28,19.69,9.92,19.69,7.29,0,9.39-2.1,9.39-12.1v-1.28h-9.39v-8.72Z"/>
  <path d="M412.3-115.15h10.9l17.58,34.34v-34.34h9.62v53.51h-10.22l-18.26-35.62v35.62h-9.62v-53.51Z"/>
  <path class="st1" d="M131.53-76.66c0-4.57-1.59-6.33-5.82-6.5h-3.54l-4.99-.09-5.13.09q-6.72,0-8.39.53c-2.57.79-3.67,2.46-4.02,6.15-.21,1.58-.35,6.94-.35,10.72,0,7.91.62,11.07,2.56,12.74,1.59,1.32,3.54,1.84,7.21,1.93q1.52.09,10.19.09c9.22.09,10.95-.53,12.13-4.39.14-.7.21-1.49.21-3.25v-1.41h-17.82v-7.89c0-1.66,1.34-3,3-3h28.54v8.08c0,9.66-.28,13.09-1.18,16.25-1.59,5.45-4.85,8.08-10.68,8.87-1.46.18-5.68.26-19.34.26-10.61,0-14.7-.26-17.61-1.05-5.06-1.41-8.04-4.13-9.64-8.96-1.39-3.95-1.73-8.08-1.73-18.98,0-12.56.55-17.57,2.36-21.7,2.08-4.57,5.34-6.94,11.3-8,3.19-.53,8.8-.79,17.61-.79,12.62,0,16.64.26,19.55,1.14,7.14,2.28,9.43,6.85,9.36,19.15h-13.79Z"/>
  <path class="st1" d="M156.4-96.51h19.39l28.01,44.54-.35-44.54h10.94c1.31,0,2.37,1.34,2.37,3v48.13c0,4.13-2.64,7.47-5.89,7.47h-16.7l-27.59-44.11.35,44.11h-10.52c-1.66,0-3-1.34-3-3v-52.6c0-1.66,1.34-3,3-3Z"/>
</svg>