<?xml version="1.0" encoding="UTF-8"?>
<svg id="Dash_Line" xmlns="http://www.w3.org/2000/svg" version="1.1" viewBox="0 0 96 96">
  <path d="M85.97,5.78c-.08-.36-.36-.65-.72-.75-.36-.09-.75.02-1,.3-.04.04-3.85,4.22-9.93,8.8-.44.33-.53.96-.2,1.4.33.44.96.53,1.4.2,4.05-3.05,7.08-5.89,8.75-7.55.31,4.5-.63,15.38-16.14,19.15-.54.13-.87.67-.74,1.21.11.46.52.76.97.76.08,0,.16,0,.24-.03,5.48-1.33,9.28-3.53,11.91-6.06-.08,1.62-.5,3.89-2,5.9-1.93,2.59-5.19,4.18-9.67,4.75-.43-.75-.96-1.46-1.61-2.11-1.78-1.78-4.06-2.78-6.17-2.71-1.66-.96-3.45-.88-4.55.22-1.1,1.1-1.17,2.89-.22,4.55-.07,2.1.92,4.38,2.71,6.17,1.4,1.4,3.15,2.33,4.87,2.62.04.17.03.3.03.35-.01.1-.06.18-.1.27-2.25.46-4.69.29-7.28-.54-1.64-.53-2.93-1.7-3.83-3.48v-10.37c1.56-1.91,3.85-2.76,3.85-2.76,3.01-1,6.11-2.36,9.2-4.02.49-.26.67-.87.41-1.35s-.87-.67-1.35-.41c-2.99,1.61-5.98,2.92-8.91,3.89-.09.03-1.62.6-3.19,1.86v-4.44c2.54-1.58,4.24-4.39,4.24-7.59,0-4.93-4.01-8.94-8.94-8.94s-8.94,4.01-8.94,8.94c0,3.21,1.7,6.01,4.24,7.59v4.44c-1.57-1.26-3.11-1.83-3.21-1.87C24.11,18.84,11.87,5.46,11.74,5.33c-.25-.28-.63-.39-1-.3-.36.09-.64.38-.72.75-.03.12-1.74,8.32,3.52,15.26-.17,1.33-.43,5.56,2.32,9.25.89,1.2,2,2.21,3.32,3.04.44,1.12,2.02,4.7,5.08,7.7-.28,1.41-.24,2.88.18,4.32.63,2.2,2.16,4.1,4.28,5.36l11.39,6.71-5.22,3.08c-2.29,1.35-3.62,3.75-3.54,6.41.07,2.53,1.58,4.92,3.94,6.22l4.43,2.44-2.07,1.14c-2.11,1.17-3.52,3.3-3.76,5.71-.21,2.07.55,4.21,2.08,5.87l2.07,2.25c.18.19.43.31.69.32h.04c.25,0,.49-.09.68-.26l1.98-1.82c.85-.78,1.34-1.85,1.39-3,.04-.87-.19-1.71-.63-2.44l2.17-1.2,1.68,7.24c.22.93,1,1.56,1.96,1.56s1.74-.62,1.96-1.56l1.68-7.24,2.17,1.2c-1.06,1.72-.79,4.01.75,5.43l1.98,1.82c.19.17.43.26.68.26h.04c.26-.01.51-.13.69-.32l2.07-2.25c1.53-1.66,2.29-3.8,2.08-5.87-.24-2.41-1.64-4.55-3.76-5.71l-2.07-1.14,4.43-2.44c2.36-1.3,3.87-3.69,3.94-6.22.07-2.66-1.25-5.06-3.54-6.41l-5.22-3.08,11.39-6.71c2.13-1.26,3.65-3.16,4.28-5.36.41-1.44.46-2.91.18-4.32,3.06-3,4.64-6.58,5.08-7.7,1.33-.83,2.44-1.85,3.33-3.05,2.74-3.69,2.48-7.91,2.31-9.24,5.26-6.94,3.55-15.14,3.52-15.26h0ZM55.92,44.59c1.55.49,3.06.77,4.53.85l-7.76,4.57v-7.4c.91.91,1.99,1.58,3.22,1.98h0ZM41.06,14c0-3.83,3.11-6.94,6.94-6.94s6.94,3.11,6.94,6.94-3.11,6.94-6.94,6.94-6.94-3.11-6.94-6.94ZM48,22.94c.94,0,1.85-.15,2.7-.42v31.85l-5.4-3.18v-28.67c.85.27,1.76.42,2.7.42h0ZM43.3,50.01l-7.75-4.57c1.47-.08,2.98-.36,4.53-.85,1.24-.4,2.31-1.07,3.22-1.99,0,0,0,7.41,0,7.41ZM17.49,29.12c-1.51-2.02-1.93-4.28-2.01-5.91,2.64,2.53,6.44,4.73,11.91,6.06.54.14,1.08-.2,1.21-.74.13-.54-.2-1.08-.74-1.21-15.45-3.75-16.43-14.62-16.14-19.13,3.76,3.76,14.32,13.4,27.71,17.86.02,0,2.29.84,3.87,2.77v10.38c-.91,1.78-2.19,2.96-3.83,3.48-2.53.81-4.93,1-7.13.57-.04,0-.08,0-.13,0-.05-.1-.1-.19-.11-.31,0-.05-.02-.19.03-.35,1.72-.28,3.47-1.22,4.87-2.62,1.78-1.78,2.78-4.06,2.71-6.17.96-1.66.88-3.45-.22-4.55-1.1-1.1-2.89-1.17-4.55-.22-2.1-.07-4.38.92-6.17,2.71-.64.64-1.18,1.36-1.61,2.11-4.47-.57-7.73-2.15-9.67-4.74h0ZM22.06,34.72c1.29.47,2.73.81,4.29,1.04-.13.47-.22.94-.26,1.42-.43.54-.79,1.12-1.08,1.72-1.31-1.43-2.28-2.96-2.94-4.18ZM40.56,81.96c-.37.2-.62.55-.68.96-.04.24-.05.7.33,1.12.42.46.63,1.04.61,1.66-.03.62-.29,1.19-.74,1.61l-1.24,1.14-1.39-1.51c-1.14-1.24-1.71-2.81-1.56-4.32.18-1.78,1.17-3.3,2.73-4.16l3.17-1.75,1.8.99c.1.8.21,1.59.36,2.39l-3.38,1.87h0ZM49.71,81.62l-1.72,7.31-1.7-7.31c-.21-.89-.37-1.8-.51-2.71l4.03,2.23c-.03.16-.07.32-.1.48h0ZM60.11,82.62c.15,1.5-.42,3.08-1.56,4.32l-1.39,1.51-1.24-1.14c-.94-.86-1-2.33-.13-3.27.38-.42.37-.88.33-1.11-.06-.41-.31-.76-.67-.96l-19.18-10.59c-1.74-.96-2.86-2.7-2.91-4.53-.05-1.92.9-3.65,2.56-4.63l6.18-3.64,1.21.71v3.22l-5.35,3.15c-.54.32-.6.84-.59,1.05,0,.21.07.73.62,1.03l19.41,10.72c1.56.86,2.55,2.38,2.73,4.16h0ZM52.7,64.83l3.13,1.85-3.13,1.73v-3.58ZM50.7,72.49l-5.4-2.98v-9.04l5.4,3.18s0,8.84,0,8.84ZM43.3,68.41l-3.13-1.73,3.13-1.84v3.57ZM62.65,66.85c-.05,1.83-1.17,3.56-2.91,4.53l-5.53,3.05-1.52-.84c0-.21,0-.42,0-.63v-2.27l5.32-2.94c.55-.3.62-.82.62-1.03,0-.21-.05-.73-.59-1.05l-28.31-16.68c-1.69-.99-2.89-2.48-3.38-4.19-.67-2.31-.12-4.77,1.44-6.58.15-.17.24-.4.25-.63.04-1.49.83-3.14,2.11-4.43,1.44-1.44,3.33-2.25,4.92-2.11.23.02.45-.04.64-.16.89-.59,1.87-.68,2.33-.22s.37,1.44-.22,2.33c-.12.19-.18.42-.16.64.15,1.59-.66,3.47-2.11,4.92-1.22,1.22-2.75,1.99-4.19,2.11-.3.02-.57.18-.74.42-.61.88-.58,1.77-.53,2.12.07.55.36,1.56,1.46,2.21l28.51,16.8c1.66.97,2.61,2.71,2.56,4.63h0ZM69.63,44.8c-.49,1.71-1.69,3.19-3.38,4.19l-12.34,7.27-1.21-.71v-3.22l11.73-6.91c1.1-.65,1.39-1.66,1.46-2.21.04-.34.08-1.23-.53-2.11-.17-.24-.44-.4-.74-.42-1.44-.12-2.97-.88-4.19-2.11-1.44-1.45-2.25-3.33-2.11-4.92.02-.23-.04-.45-.16-.64-.59-.89-.68-1.87-.22-2.33s1.44-.36,2.33.22c.19.12.42.18.64.16,1.59-.15,3.47.66,4.92,2.11,1.28,1.28,2.07,2.94,2.11,4.43,0,.23.09.45.25.63,1.57,1.81,2.11,4.26,1.44,6.58h0ZM71.01,38.9c-.29-.61-.65-1.19-1.08-1.73-.04-.47-.13-.95-.26-1.42,1.56-.23,3-.57,4.28-1.04-.66,1.22-1.63,2.75-2.94,4.18h0ZM68.85,19.1c-.3-.47-.16-1.08.31-1.38.38-.24.75-.48,1.11-.72.46-.3,1.08-.18,1.39.28.3.46.18,1.08-.28,1.39-.38.25-.75.49-1.14.74-.17.11-.35.16-.54.16-.33,0-.65-.16-.85-.46h0ZM63.46,32.57c.39.39.39,1.02,0,1.41l-.32.32c-.19.19-.45.29-.71.29s-.51-.1-.71-.29c-.39-.39-.39-1.02,0-1.41l.32-.32c.39-.39,1.02-.39,1.41,0h0ZM32.54,33.98c-.39-.39-.39-1.02,0-1.41s1.02-.39,1.41,0l.32.32c.39.39.39,1.02,0,1.41-.19.19-.45.29-.71.29s-.51-.1-.71-.29l-.32-.32Z"/>
</svg>