<?xml version="1.0" encoding="UTF-8"?>
<svg id="icon" xmlns="http://www.w3.org/2000/svg" version="1.1" viewBox="0 0 64 64">
  <path d="M16,61h32c2.76,0,5-2.24,5-5V8c0-2.76-2.24-5-5-5H16c-2.76,0-5,2.24-5,5v48c0,2.76,2.24,5,5,5ZM13,8c0-1.66,1.34-3,3-3h32c1.66,0,3,1.34,3,3v48c0,1.66-1.34,3-3,3H16c-1.66,0-3-1.34-3-3V8Z"/>
  <path d="M32,37c6.63,0,12-5.37,12-12s-5.37-12-12-12-12,5.37-12,12c0,6.62,5.38,11.99,12,12ZM22.05,26h4.85c.13,3.12,1.11,6.14,2.84,8.73-4.16-.97-7.25-4.48-7.69-8.73ZM35.1,26c-.13,3.06-1.21,6.01-3.1,8.43-1.89-2.42-2.97-5.37-3.1-8.43h6.19ZM28.9,24c.13-3.07,1.21-6.02,3.1-8.44,1.89,2.42,2.97,5.37,3.1,8.44h-6.19ZM34.26,34.73c1.73-2.6,2.71-5.62,2.84-8.73h4.85c-.44,4.26-3.53,7.76-7.69,8.73ZM41.95,24h-4.85c-.13-3.12-1.11-6.14-2.84-8.73,4.16.97,7.25,4.48,7.69,8.73ZM29.74,15.27c-1.73,2.6-2.71,5.62-2.84,8.73h-4.85c.44-4.25,3.52-7.76,7.69-8.73Z"/>
  <rect x="23" y="45" width="18" height="2"/>
  <rect x="23" y="50" width="18" height="2"/>
</svg>