<?xml version="1.0" encoding="UTF-8"?>
<svg id="Line" xmlns="http://www.w3.org/2000/svg" version="1.1" viewBox="0 0 64 64">
  <path d="M58.07,28.42c-.19-.02-.39-.03-.59-.04-.78-.02-1.86.09-2.91.3-.73.14-1.47.08-2.15-.19l-.79-.31c-.52-2.66-1.56-5.14-3.03-7.32.1-.21.2-.41.28-.62.3-.78.8-1.43,1.45-1.88.63-.44,1.53-1.13,2.13-1.74.17-.17.32-.34.45-.5,1.09-1.32.91-3.31-.42-4.63-1.31-1.31-3.28-1.5-4.59-.45-.15.12-.3.25-.45.39-.56.53-1.25,1.38-1.85,2.27-.42.62-.99,1.1-1.66,1.39l-.78.34c-2.17-1.47-4.65-2.51-7.32-3.04-.07-.22-.15-.43-.24-.64-.34-.76-.45-1.58-.31-2.35.14-.76.28-1.88.28-2.74,0-.23,0-.46-.03-.68-.16-1.7-1.7-2.98-3.57-2.98s-3.38,1.26-3.56,2.93c-.02.19-.03.39-.04.59-.02.78.09,1.86.3,2.91.14.73.08,1.47-.19,2.15l-.31.79c-2.66.52-5.14,1.56-7.32,3.03-.21-.1-.41-.2-.62-.28-.78-.3-1.43-.8-1.88-1.45-.44-.63-1.13-1.53-1.74-2.13-.17-.17-.34-.32-.5-.45-1.32-1.09-3.31-.91-4.63.42-1.31,1.31-1.5,3.28-.45,4.59.12.15.25.3.39.45.53.56,1.38,1.25,2.27,1.85.62.42,1.1.99,1.39,1.66l.34.78c-1.47,2.17-2.51,4.65-3.04,7.32-.22.07-.43.15-.64.24-.76.34-1.58.45-2.35.31-.75-.14-1.84-.28-2.69-.28-.25,0-.49.01-.72.03-1.7.16-2.98,1.7-2.98,3.57s1.26,3.38,2.93,3.56c.19.02.39.03.59.04.78.02,1.86-.09,2.91-.3.73-.14,1.47-.08,2.15.19l.79.31c.52,2.66,1.56,5.14,3.03,7.32-.1.21-.2.41-.28.62-.3.78-.8,1.43-1.45,1.88-.63.44-1.53,1.13-2.13,1.74-.17.17-.32.34-.45.5-1.09,1.32-.91,3.31.42,4.63.74.74,1.7,1.12,2.62,1.12.71,0,1.4-.22,1.96-.68.15-.12.3-.25.45-.39.56-.53,1.25-1.38,1.85-2.27.42-.62.99-1.1,1.66-1.39l.78-.34c2.17,1.47,4.65,2.51,7.32,3.04.07.22.15.43.24.64.34.76.45,1.58.31,2.35-.14.76-.28,1.88-.28,2.74,0,.23.01.46.03.68.16,1.7,1.7,2.98,3.57,2.98s3.38-1.26,3.56-2.93c.02-.19.03-.39.04-.59.02-.78-.09-1.86-.3-2.91-.14-.73-.08-1.47.19-2.15l.31-.79c2.66-.52,5.14-1.56,7.32-3.03.21.1.41.2.62.28.78.3,1.43.8,1.88,1.45.44.63,1.13,1.53,1.74,2.13.17.17.34.32.5.45.58.48,1.29.71,2.01.71.93,0,1.88-.38,2.62-1.12,1.31-1.31,1.5-3.28.45-4.59-.12-.15-.25-.3-.39-.45-.53-.56-1.38-1.25-2.27-1.85-.62-.42-1.1-.99-1.39-1.66l-.34-.78c1.47-2.17,2.51-4.65,3.04-7.32.22-.07.43-.15.64-.24.76-.34,1.58-.45,2.35-.31.75.14,1.84.28,2.69.28.25,0,.49,0,.72-.03,1.7-.16,2.98-1.7,2.98-3.57s-1.26-3.38-2.93-3.56h0ZM47.27,14.81c.5-.75,1.12-1.51,1.57-1.93.11-.1.21-.2.32-.28.5-.4,1.35-.27,1.92.3.58.58.71,1.43.28,1.95-.1.12-.21.24-.33.37-.42.42-1.15,1.01-1.85,1.5-.82.57-1.48,1.34-1.94,2.26l-2.2-2.2c.89-.45,1.65-1.12,2.22-1.96h.01ZM30.46,12c.31-.95.37-1.96.18-2.95-.17-.88-.28-1.86-.26-2.48,0-.15.01-.29.03-.43.07-.64.76-1.15,1.57-1.15s1.51.52,1.58,1.17c.02.16.02.32.02.49,0,.6-.09,1.52-.25,2.37-.18.98-.1,2,.23,2.96h-3.1v.02ZM14.81,16.73c-.75-.5-1.51-1.12-1.93-1.57-.1-.11-.2-.21-.28-.32-.4-.5-.27-1.35.3-1.92.35-.35.8-.53,1.21-.53.27,0,.53.08.74.25.12.1.24.21.37.33.42.42,1.01,1.15,1.5,1.85.57.82,1.34,1.48,2.26,1.94l-2.2,2.2c-.45-.89-1.12-1.65-1.96-2.22h-.01ZM12,33.54c-.95-.31-1.96-.37-2.95-.18-.89.17-1.85.28-2.48.26-.15,0-.29,0-.43-.03-.64-.07-1.15-.76-1.15-1.57s.52-1.51,1.17-1.58c.17-.02.35-.03.53-.02.6,0,1.51.1,2.33.25.98.18,2,.1,2.96-.23v3.1h.02ZM32,14c9.93,0,18,8.07,18,18s-8.07,18-18,18-18-8.07-18-18,8.07-18,18-18ZM16.73,49.19c-.5.75-1.12,1.51-1.57,1.93-.11.1-.21.2-.32.28-.5.41-1.35.27-1.92-.3-.58-.58-.71-1.43-.28-1.95.1-.12.21-.24.33-.37.42-.42,1.15-1.01,1.85-1.5.82-.57,1.48-1.34,1.94-2.26l2.2,2.2c-.89.45-1.65,1.12-2.22,1.96h-.01ZM33.54,52c-.31.95-.37,1.96-.18,2.95.17.88.28,1.86.26,2.48,0,.15,0,.29-.03.43-.07.64-.76,1.15-1.57,1.15s-1.51-.52-1.58-1.17c-.02-.16-.02-.32-.02-.49,0-.6.09-1.52.25-2.37.18-.98.1-2-.23-2.96h3.1v-.02ZM49.19,47.27c.75.5,1.51,1.12,1.93,1.57.1.11.2.21.28.32.4.5.27,1.35-.3,1.92s-1.44.71-1.95.28c-.12-.1-.24-.21-.37-.33-.42-.42-1.01-1.15-1.5-1.85-.57-.82-1.34-1.48-2.26-1.94l2.2-2.2c.45.89,1.12,1.65,1.96,2.22h0ZM57.83,33.56c-.16.02-.32.02-.49.02-.63-.02-1.52-.09-2.37-.25-.34-.06-.69-.09-1.03-.09-.65,0-1.3.11-1.93.32v-3.1c.95.31,1.96.37,2.95.18.89-.17,1.86-.27,2.48-.26.15,0,.29.01.43.03.64.07,1.15.76,1.15,1.57s-.52,1.51-1.17,1.58h-.02ZM32,46c7.72,0,14-6.28,14-14s-6.28-14-14-14-14,6.28-14,14,6.28,14,14,14ZM20,32c0-.34.02-.67.05-1h5.03c-.05.33-.08.66-.08,1s.03.67.08,1h-5.03c-.03-.33-.05-.66-.05-1ZM32,27c2.76,0,5,2.24,5,5s-2.24,5-5,5-5-2.24-5-5,2.24-5,5-5ZM44,32c0,.34-.02.67-.05,1h-5.03c.05-.33.08-.66.08-1s-.03-.67-.08-1h5.03c.03.33.05.66.05,1ZM43.61,35c-.28,1.1-.72,2.13-1.28,3.08l-3.08-3.08h4.36ZM39.24,29l3.08-3.08c.56.95,1,1.99,1.28,3.08,0,0-4.36,0-4.36,0ZM20.39,29c.28-1.1.72-2.13,1.28-3.08l3.08,3.08h-4.36ZM24.76,35l-3.08,3.08c-.56-.95-1-1.99-1.28-3.08h4.36ZM22.85,39.74l3.56-3.56c.4.54.88,1.01,1.41,1.41l-3.56,3.56c-.51-.43-.98-.9-1.41-1.41ZM29,39.24v4.36c-1.1-.28-2.13-.72-3.08-1.28,0,0,3.08-3.08,3.08-3.08ZM31,43.95v-5.03c.33.05.66.08,1,.08s.67-.03,1-.08v5.03c-.33.03-.66.05-1,.05s-.67-.02-1-.05ZM35,39.24l3.08,3.08c-.95.56-1.99,1-3.08,1.28,0,0,0-4.36,0-4.36ZM39.74,41.15l-3.56-3.56c.54-.4,1.01-.88,1.41-1.41l3.56,3.56c-.43.51-.9.98-1.41,1.41ZM41.15,24.26l-3.56,3.56c-.4-.54-.88-1.01-1.41-1.41l3.56-3.56c.51.43.98.9,1.41,1.41ZM35,24.76v-4.36c1.1.28,2.13.72,3.08,1.28l-3.08,3.08ZM33,20.05v5.03c-.33-.05-.66-.08-1-.08s-.67.03-1,.08v-5.03c.33-.03.66-.05,1-.05s.67.02,1,.05ZM29,24.76l-3.08-3.08c.95-.56,1.99-1,3.08-1.28v4.36ZM24.26,22.85l3.56,3.56c-.54.4-1.01.88-1.41,1.41l-3.56-3.56c.43-.51.9-.98,1.41-1.41ZM31,16c0-.55.45-1,1-1s1,.45,1,1-.45,1-1,1-1-.45-1-1ZM19.98,21.39c-.39-.39-.39-1.02,0-1.41s1.02-.39,1.41,0,.39,1.02,0,1.41-1.02.39-1.41,0ZM17,32c0,.55-.45,1-1,1s-1-.45-1-1,.45-1,1-1,1,.45,1,1ZM21.39,42.61c.39.39.39,1.02,0,1.41s-1.02.39-1.41,0-.39-1.02,0-1.41,1.02-.39,1.41,0ZM33,48c0,.55-.45,1-1,1s-1-.45-1-1,.45-1,1-1,1,.45,1,1ZM44.02,42.61c.39.39.39,1.02,0,1.41s-1.02.39-1.41,0-.39-1.02,0-1.41,1.02-.39,1.41,0ZM47,32c0-.55.45-1,1-1s1,.45,1,1-.45,1-1,1-1-.45-1-1ZM42.61,21.39c-.39-.39-.39-1.02,0-1.41s1.02-.39,1.41,0,.39,1.02,0,1.41-1.02.39-1.41,0Z"/>
</svg>