<?xml version="1.0" encoding="UTF-8"?>
<svg id="Outline" xmlns="http://www.w3.org/2000/svg" version="1.1" viewBox="0 0 64 64">
  <path d="M32,10.23c-2.78,0-5.03,2.26-5.03,5.03s2.26,5.04,5.03,5.04,5.03-2.26,5.03-5.03-2.26-5.03-5.03-5.04ZM32,18.3c-1.67,0-3.03-1.36-3.03-3.03s1.36-3.03,3.03-3.03,3.03,1.36,3.03,3.03-1.36,3.03-3.03,3.03ZM56.66,26.9v-1.47h1.35c1.66,0,3.01-1.35,3.01-3.01v-2.67c0-1.11-.61-2.13-1.58-2.65L34.37,3.6c-1.48-.8-3.26-.8-4.74,0L4.57,17.09c-.98.53-1.58,1.54-1.58,2.65v2.67c0,1.66,1.35,3.01,3.01,3.01h1.35v1.47c0,1.32.9,2.43,2.12,2.76v18.51c-1.22.33-2.12,1.43-2.12,2.76v1.46h-.19c-2.29,0-4.15,1.86-4.15,4.15v3.47c0,.55.45,1,1,1h56c.55,0,1-.45,1-1v-3.47c0-2.29-1.86-4.15-4.15-4.15h-.19v-1.46c0-1.32-.9-2.43-2.12-2.76v-18.51c1.22-.33,2.12-1.43,2.12-2.75h0ZM47.47,48.06v-18.29h5.06v18.29h-5.06ZM43.34,50.92v1.46h-4.69v-1.46c0-1.32-.9-2.43-2.12-2.76v-18.51c1.22-.33,2.12-1.43,2.12-2.75v-1.47h4.69v1.47c0,1.32.9,2.43,2.12,2.76v18.51c-1.22.33-2.12,1.43-2.12,2.76ZM18.53,48.17v-18.51c1.22-.33,2.12-1.43,2.12-2.75v-1.47h4.69v1.47c0,1.32.91,2.43,2.12,2.76v18.51c-1.22.33-2.12,1.43-2.12,2.76v1.46h-4.69v-1.46c0-1.32-.91-2.43-2.12-2.76ZM16.53,29.76v18.29h-5.06v-18.29s5.06,0,5.06,0ZM29.47,29.76h5.06v18.29h-5.06s0-18.29,0-18.29ZM35.79,27.76h-7.58c-.48,0-.86-.39-.86-.86v-1.47h9.31v1.47c0,.48-.39.86-.86.86ZM27.34,50.92c0-.48.39-.87.86-.87h7.58c.48,0,.86.39.86.87v1.46h-9.31s0-1.46,0-1.46ZM54.66,26.9c0,.48-.39.86-.86.86h-7.58c-.48,0-.86-.39-.86-.86v-1.47h9.31s0,1.47,0,1.47ZM4.98,22.42v-2.67c0-.37.2-.72.53-.89L30.58,5.36c.89-.48,1.95-.48,2.84,0l25.06,13.49c.33.18.53.52.53.89v2.67c0,.56-.46,1.01-1.01,1.01H6c-.56,0-1.01-.45-1.01-1.01h0ZM9.34,25.43h9.31v1.47c0,.48-.39.86-.86.86h-7.58c-.48,0-.86-.39-.86-.86v-1.47ZM9.34,50.92c0-.48.39-.87.86-.87h7.58c.48,0,.86.39.86.87v1.46h-9.31v-1.46ZM59,56.53v2.47H5v-2.47c0-1.19.96-2.15,2.15-2.15h49.7c1.19,0,2.15.96,2.15,2.15h0ZM54.66,52.38h-9.31v-1.46c0-.48.39-.87.86-.87h7.58c.48,0,.86.39.86.87,0,0,0,1.46,0,1.46Z"/>
</svg>